# xmcd CD database file
# Copyright (C) 1997 Ti Kan
#
# Track frame offsets:
# 150
# 19185
# 37943
# 49124
# 71591
# 89485
# 105882
# 116963
# 130708
# 142719
# 162218
# 171399
# 189653
# 207031
# 221924
# 238471
# 252553
# 270594
# 281992
# 298661
#
# Disc length: 4124 seconds
#
# Revision: 1
# Processed by: cddbd v1.4b41PL1 Copyright (c) Steve Scherf et al.
# Submitted via: CDWizzard Release:4.35
#
DISCID=36101a14
DTITLE=Various Artist - The Heart Of Christmas Soulful Keyboard
DYEAR=1900
DGENRE=
TTITLE0=Jingle Bells
TTITLE1=What Child Is This?
TTITLE2=Hark! The Hearld Angels Sing
TTITLE3=Silent Night
TTITLE4=It Came Upon the Midnight Clear
TTITLE5=Do You Hear What I Hear?
TTITLE6=Virgin Mary
TTITLE7=The First Noel
TTITLE8=Go Tell It On The Mountian
TTITLE9=O Holy Night
TTITLE10=Christmas Bells
TTITLE11=We Tree Kings
TTITLE12=I Heard the Bells On Christmas Day
TTITLE13=I Wonder As I Wander
TTITLE14=Children, Go Where I Send Thee
TTITLE15=Away In A Manger
TTITLE16=Mary Had A Baby
TTITLE17=Ring The Bells
TTITLE18=Sister Mary
TTITLE19=Amen
EXTD=
EXTT0=
EXTT1=
EXTT2=
EXTT3=
EXTT4=
EXTT5=
EXTT6=
EXTT7=
EXTT8=
EXTT9=
EXTT10=
EXTT11=
EXTT12=
EXTT13=
EXTT14=
EXTT15=
EXTT16=
EXTT17=
EXTT18=
EXTT19=
PLAYORDER=
